<svg width="48" height="48" viewBox="0 0 48 48" fill="none" xmlns="http://www.w3.org/2000/svg">
<path fill-rule="evenodd" clip-rule="evenodd" d="M15.5 17.9998C20.5687 17.9998 25.0258 21.041 26.9696 25.5211L26.998 25.5908L27.1136 25.5732C27.3632 25.5408 27.6151 25.519 27.8686 25.5081L28.25 25.4998C33.0825 25.4998 37 29.4174 37 34.2498C37 39.0823 33.0825 42.9998 28.25 42.9998H14.75C14.5978 42.9998 14.4496 42.9829 14.3072 42.9507L14.264 42.9388L14.0026 42.911C7.87527 42.1796 3.1544 37.036 3.00371 30.807L3 30.4998C3 23.5963 8.59644 17.9998 15.5 17.9998ZM40.9904 26.7678L42.7224 27.7678C43.679 28.3201 44.0068 29.5433 43.4545 30.4998C42.9022 31.4564 41.679 31.7842 40.7224 31.2319L38.9904 30.2319C38.0338 29.6796 37.706 28.4564 38.2583 27.4998C38.8106 26.5433 40.0338 26.2155 40.9904 26.7678ZM27 8.99985C33.6274 8.99985 39 14.3724 39 20.9998C39 23.4834 38.2404 25.8497 36.8702 27.8271C34.9103 25.2 31.7787 23.4998 28.25 23.4998L28.197 23.5008L28.079 23.2882C25.6063 18.9907 21.0984 16.2123 16.0836 16.0115C17.9821 11.8564 22.1777 8.99985 27 8.99985ZM45.3526 16.0823C45.6385 17.1492 45.0053 18.2459 43.9384 18.5318L42.0065 19.0494C40.9396 19.3353 39.8429 18.7021 39.557 17.6352C39.2712 16.5683 39.9043 15.4716 40.9712 15.1857L42.9031 14.6681C43.97 14.3822 45.0667 15.0154 45.3526 16.0823ZM13.2776 10.7678L15.0096 11.7678C15.9662 12.3201 16.294 13.5433 15.7417 14.4998C15.1894 15.4564 13.9662 15.7842 13.0096 15.2319L11.2776 14.2319C10.321 13.6796 9.99323 12.4564 10.5455 11.4998C11.0978 10.5433 12.321 10.2155 13.2776 10.7678ZM36.5 4.54537C37.4566 5.09765 37.7843 6.32083 37.2321 7.27742L36.2321 9.00947C35.6798 9.96605 34.4566 10.2938 33.5 9.74152C32.5434 9.18923 32.2157 7.96605 32.7679 7.00947L33.7679 5.27742C34.3202 4.32083 35.5434 3.99308 36.5 4.54537ZM24.5319 4.06147L25.0496 5.99332C25.3354 7.06026 24.7023 8.15693 23.6354 8.44281C22.5684 8.7287 21.4717 8.09553 21.1859 7.0286L20.6682 5.09675C20.3823 4.02982 21.0155 2.93314 22.0824 2.64726C23.1494 2.36137 24.246 2.99454 24.5319 4.06147Z" fill="white"/>
</svg>
