<svg width="57" height="60" viewBox="0 0 57 60" fill="none" xmlns="http://www.w3.org/2000/svg">
<path fill-rule="evenodd" clip-rule="evenodd" d="M27 8C18.1634 8 11 15.1634 11 24L11.0034 24.3313C11.1672 32.3732 17.2826 39.0157 25.2043 39.9002L25.468 39.927L25.5604 39.9515C25.7019 39.9833 25.849 40 26 40H44L44.2943 39.996C50.262 39.8234 55 34.9545 55 29C55 22.9249 50.0751 18 44 18L43.5683 18.0083C43.1378 18.025 42.7111 18.0666 42.2899 18.1325L41.915 18.198L41.8113 17.9358C39.3965 12.033 33.6037 8 27 8Z" fill="#BFBFBF"/>
<path fill-rule="evenodd" clip-rule="evenodd" d="M18 20C9.16344 20 2 27.1634 2 36L2.00337 36.3313C2.16721 44.3732 8.28258 51.0157 16.2043 51.9002L16.468 51.927L16.5604 51.9515C16.7019 51.9833 16.849 52 17 52H35L35.2943 51.996C41.262 51.8234 46 46.9545 46 41C46 34.9249 41.0751 30 35 30L34.5683 30.0083C34.1378 30.025 33.7111 30.0666 33.2899 30.1325L32.915 30.198L32.8113 29.9358C30.3965 24.033 24.6037 20 18 20Z" fill="white"/>
</svg>
