<svg width="48" height="48" viewBox="0 0 48 48" fill="none" xmlns="http://www.w3.org/2000/svg">
<path fill-rule="evenodd" clip-rule="evenodd" d="M21.0452 4.30793L21.2138 4.3455C22.2246 4.61634 22.846 5.61486 22.6656 6.6264L22.628 6.79499L20.6461 14.1906L23.999 19.9989L27.3539 14.1906L25.372 6.79499C25.0861 5.72806 25.7193 4.63138 26.7862 4.3455C27.797 4.07466 28.8345 4.62868 29.1839 5.59493L29.2357 5.75971L30.1824 9.29147L31.768 6.5453C32.3202 5.58872 33.5434 5.26097 34.5 5.81325C35.4131 6.34043 35.7532 7.4789 35.3019 8.41329L35.2321 8.5453L33.6465 11.2915L37.1785 10.3455C38.1893 10.0747 39.2268 10.6287 39.5762 11.5949L39.628 11.7597C39.8988 12.7705 39.3448 13.808 38.3786 14.1574L38.2138 14.2092L30.8181 16.1906L27.464 21.9989L34.171 21.9998L39.5858 16.5856C40.3668 15.8045 41.6332 15.8045 42.4142 16.5856C43.1542 17.3255 43.1931 18.501 42.531 19.2868L42.4142 19.414L39.828 21.9998H43C44.1046 21.9998 45 22.8952 45 23.9998C45 25.0541 44.1841 25.9179 43.1493 25.9943L43 25.9998H39.828L42.4142 28.5856C43.1542 29.3255 43.1931 30.501 42.531 31.2868L42.4142 31.414C41.6743 32.1539 40.4988 32.1929 39.713 31.5308L39.5858 31.414L34.171 25.9998L27.463 25.9989L30.8176 31.8081L38.2138 33.7904C39.2807 34.0762 39.9139 35.1729 39.628 36.2399C39.3572 37.2506 38.3586 37.8721 37.3471 37.6916L37.1785 37.6541L33.646 36.7072L35.2321 39.4543C35.7843 40.4109 35.4566 41.634 34.5 42.1863C33.5869 42.7135 32.4309 42.4388 31.8473 41.5808L31.768 41.4543L30.1819 38.7072L29.2357 42.2399C28.9649 43.2506 27.9663 43.8721 26.9548 43.6916L26.7862 43.6541C25.7754 43.3832 25.154 42.3847 25.3344 41.3732L25.372 41.2046L27.3534 33.8081L23.999 27.9999L20.6466 33.8081L22.628 41.2046C22.9139 42.2715 22.2807 43.3682 21.2138 43.6541C20.203 43.9249 19.1655 43.3709 18.8161 42.4046L18.7643 42.2399L17.8181 38.7072L16.232 41.4543C15.6798 42.4109 14.4566 42.7386 13.5 42.1863C12.5869 41.6591 12.2468 40.5207 12.6981 39.5863L12.7679 39.4543L14.3539 36.7072L10.8215 37.6541C9.81071 37.9249 8.77324 37.3709 8.42375 36.4046L8.372 36.2399C8.10116 35.2291 8.65517 34.1916 9.62142 33.8421L9.78621 33.7904L17.1824 31.8081L20.536 25.9989L13.828 25.9998L8.41421 31.414C7.63316 32.195 6.36683 32.195 5.58579 31.414C4.84585 30.6741 4.8069 29.4986 5.46895 28.7128L5.58579 28.5856L8.171 25.9998H5C3.89543 25.9998 3 25.1044 3 23.9998C3 22.9454 3.81588 22.0816 4.85074 22.0053L5 21.9998H8.171L5.58579 19.414C4.84585 18.6741 4.8069 17.4986 5.46895 16.7128L5.58579 16.5856C6.32573 15.8456 7.50121 15.8067 8.287 16.4687L8.41421 16.5856L13.828 21.9998L20.535 21.9989L17.1819 16.1906L9.78621 14.2092C8.71928 13.9233 8.08611 12.8266 8.372 11.7597C8.64283 10.7489 9.64136 10.1275 10.6529 10.3079L10.8215 10.3455L14.3534 11.2915L12.7679 8.5453C12.2157 7.58872 12.5434 6.36554 13.5 5.81325C14.4131 5.28607 15.5691 5.56074 16.1527 6.41878L16.232 6.5453L17.8176 9.29147L18.7643 5.75971C19.0351 4.74894 20.0337 4.12747 21.0452 4.30793Z" fill="white"/>
</svg>
