<svg width="126" height="126" viewBox="0 0 126 126" fill="none" xmlns="http://www.w3.org/2000/svg">
<path fill-rule="evenodd" clip-rule="evenodd" d="M40.6875 47.2501C53.9928 47.2501 65.6926 55.2331 70.7952 66.9935L70.8697 67.1765L71.1731 67.1303C71.8284 67.045 72.4895 66.9878 73.155 66.9592L74.1562 66.9376C86.8415 66.9376 97.125 77.2211 97.125 89.9064C97.125 102.592 86.8415 112.875 74.1562 112.875H38.7188C38.3192 112.875 37.9302 112.831 37.5564 112.746L37.443 112.715L36.7567 112.642C20.6726 110.722 8.28031 97.2199 7.88475 80.869L7.875 80.0626C7.875 61.9408 22.5657 47.2501 40.6875 47.2501ZM75.6241 14.3897C72.2899 18.8111 70.4605 24.1809 70.4605 29.8422C70.4605 44.0345 81.9656 55.5396 96.1579 55.5396C101.819 55.5396 107.19 53.7101 111.612 50.3758C115.469 47.4674 120.875 50.8723 119.918 55.6073C117.613 67.0177 110.754 76.6199 101.422 82.6078C98.2051 70.5605 87.2168 61.6876 74.1562 61.6876L74.0171 61.6903L73.7073 61.1321C66.9658 49.4152 54.4606 42.0001 40.6875 42.0001C39.4631 42.0001 38.2522 42.058 37.0574 42.171C39.2139 24.3349 52.6059 9.67647 70.3927 6.0827C75.1279 5.12596 78.5328 10.5326 75.6241 14.3897Z" fill="white"/>
</svg>
