<svg width="128" height="128" viewBox="0 0 128 128" fill="none" xmlns="http://www.w3.org/2000/svg">
<path d="M46.871 66.632C46.871 65.7733 47.5671 65.0771 48.4258 65.0771C49.2846 65.0771 49.9807 65.7733 49.9807 66.632V72.2471L52.6945 69.8348C53.3318 69.2683 54.3142 69.3198 54.8888 69.9498C55.4634 70.5798 55.4125 71.5497 54.7753 72.1162L49.9807 76.3781V83.341L56.414 79.6741L57.6678 73.8508C57.8465 73.021 58.6722 72.4912 59.5122 72.6675C60.3521 72.8437 60.8882 73.6593 60.7095 74.489L60.0379 77.6086L64.5891 75.0145C65.328 74.5934 66.275 74.8471 66.7044 75.5813C67.1337 76.3154 66.8828 77.252 66.1439 77.6732L61.2233 80.4778L64.642 81.5744C65.4592 81.8366 65.9066 82.7027 65.6412 83.5089C65.3759 84.3152 64.4983 84.7563 63.681 84.4941L57.5994 82.5433L51.6516 85.9335L58.0687 89.591L63.7524 87.7679C64.5697 87.5057 65.4473 87.9468 65.7126 88.7531C65.978 89.5593 65.5306 90.4254 64.7134 90.6876L61.6925 91.6566L66.2124 94.2328C66.9513 94.6539 67.2022 95.5905 66.7729 96.3247C66.3435 97.0588 65.3964 97.3126 64.6575 96.8914L59.7058 94.069L60.4644 97.5923C60.643 98.422 60.1069 99.2376 59.267 99.4138C58.427 99.5901 57.6013 99.0603 57.4226 98.2305L56.0819 92.0035L49.9807 88.5259V95.9845L54.4643 99.9699C55.1016 100.536 55.1524 101.506 54.5778 102.136C54.0032 102.766 53.0208 102.818 52.3835 102.251L49.9807 100.116V105.274C49.9807 106.133 49.2846 106.829 48.4258 106.829C47.5671 106.829 46.871 106.133 46.871 105.274V99.6945L44.1974 102.071C43.5601 102.638 42.5777 102.586 42.0031 101.956C41.4285 101.326 41.4793 100.356 42.1166 99.7897L46.871 95.5634V88.6583L40.3377 92.3822L39.0952 98.1529C38.9165 98.9827 38.0908 99.5125 37.2508 99.3362C36.4109 99.1599 35.8748 98.3444 36.0535 97.5146L36.7138 94.4477L32.1942 97.0238C31.4553 97.4449 30.5082 97.1912 30.0789 96.457C29.6495 95.7228 29.9004 94.7863 30.6393 94.3651L35.5912 91.5426L32.121 90.4295C31.3038 90.1673 30.8564 89.3012 31.1218 88.495C31.3871 87.6887 32.2647 87.2476 33.082 87.5098L39.2151 89.4771L45.4323 85.9335L38.8827 82.2003L33.1477 84.0399C32.3305 84.3021 31.4528 83.861 31.1875 83.0547C30.9221 82.2485 31.3695 81.3824 32.1867 81.1202L35.2588 80.1348L30.7078 77.5408C29.9689 77.1197 29.718 76.1831 30.1473 75.4489C30.5767 74.7148 31.5238 74.461 32.2627 74.8822L37.1831 77.6867L36.4358 74.2156C36.2571 73.3859 36.7932 72.5703 37.6331 72.394C38.4731 72.2178 39.2988 72.7476 39.4775 73.5774L40.807 79.7522L46.871 83.2086V75.8855L42.4276 71.9357C41.7903 71.3693 41.7395 70.3993 42.3141 69.7693C42.8887 69.1393 43.8711 69.0878 44.5084 69.6543L46.871 71.7545V66.632Z" fill="white"/>
<path opacity="0.54" d="M69.0954 92.9112C68.8252 92.6355 68.5123 92.3922 68.1592 92.1917L68.0136 92.109C68.9578 91.0292 69.3378 89.4955 68.8471 88.0102C68.5913 87.2359 68.1366 86.5899 67.5606 86.1046C68.1016 85.627 68.5284 85.0036 68.7732 84.2627C69.3012 82.6645 68.8211 81.0104 67.7149 79.9258L68.0882 79.7138C70.1381 78.5498 70.8366 75.9427 69.6432 73.9098C68.4649 71.9026 65.884 71.2111 63.8601 72.3604L63.6296 72.4912C63.1701 71.0858 61.9819 69.9707 60.4508 69.6506C59.6529 69.4838 58.8523 69.5519 58.1284 69.8116C57.9996 69.0324 57.6502 68.2796 57.0751 67.6514C55.9331 66.404 54.212 65.9889 52.6876 66.4468V66.0245C52.6876 63.6711 50.7798 61.7633 48.4264 61.7633C46.073 61.7633 44.1652 63.6711 44.1652 66.0245V66.1687C42.7368 65.8734 41.1933 66.3162 40.1412 67.4653C39.5832 68.0748 39.2377 68.8015 39.1 69.556C38.3575 69.2747 37.5304 69.1963 36.7062 69.3687C35.0771 69.7092 33.8362 70.9498 33.4482 72.4824L32.9927 72.2238C30.9687 71.0746 28.3879 71.766 27.2096 73.7732C26.0161 75.8062 26.7146 78.4133 28.7646 79.5773L28.917 79.6638C27.9526 80.7453 27.5603 82.2943 28.0558 83.7941C28.3191 84.591 28.793 85.252 29.3931 85.7418C28.7608 86.2366 28.2609 86.9171 27.9877 87.7439C27.4549 89.3568 27.9488 91.0267 29.0768 92.1106L28.6936 92.3282C28.6144 92.3732 28.5373 92.4203 28.4622 92.4694C16.8105 90.2595 8 80.0225 8 67.7278C8 53.8194 19.275 42.5444 33.1834 42.5444C36.1992 42.5444 39.0912 43.0745 41.7712 44.0466C47.059 31.1128 59.767 22 74.6035 22C94.1851 22 110.059 37.874 110.059 57.4556C110.059 58.3182 110.028 59.1737 109.968 60.0208C115.889 62.7474 120 68.7339 120 75.6805C120 85.1968 112.286 92.9112 102.769 92.9112H69.0954Z" fill="white"/>
</svg>
