<svg width="112" height="108" viewBox="0 0 112 108" fill="none" xmlns="http://www.w3.org/2000/svg">
<path fill-rule="evenodd" clip-rule="evenodd" d="M41.9994 9C57.4079 9 70.9246 18.0742 76.5591 31.3555L76.801 31.9455L77.6757 31.7982C78.6585 31.6499 79.6542 31.5563 80.6587 31.5188L81.666 31.5C95.8413 31.5 107.333 42.581 107.333 56.25C107.333 62.3062 105.074 67.8633 101.312 72.1708C102.171 70.8096 102.666 69.2105 102.666 67.5C102.666 62.5294 98.4873 58.5 93.3327 58.5H79.3327L78.8669 58.511C76.3977 58.628 74.1809 59.6703 72.5813 61.2858L72.3327 61.551L72.0841 61.2858C70.3845 59.5693 67.9881 58.5 65.3327 58.5H20.9994C16.3272 58.5 12.4569 61.8104 11.7732 66.1314C7.43885 60.3735 4.83426 53.3365 4.67388 45.7453L4.66602 45C4.66602 25.1177 21.3807 9 41.9994 9ZM90.9994 76.5C93.5767 76.5 95.666 78.5147 95.666 81C95.666 83.4853 93.5767 85.5 90.9994 85.5H58.3327C55.7554 85.5 53.666 83.4853 53.666 81C53.666 78.5147 55.7554 76.5 58.3327 76.5H90.9994ZM44.3327 76.5C46.91 76.5 48.9994 78.5147 48.9994 81C48.9994 83.4853 46.91 85.5 44.3327 85.5H11.666C9.08869 85.5 6.99935 83.4853 6.99935 81C6.99935 78.5147 9.08869 76.5 11.666 76.5H44.3327ZM93.3327 63C95.91 63 97.9994 65.0147 97.9994 67.5C97.9994 69.9853 95.91 72 93.3327 72H79.3327C76.7554 72 74.666 69.9853 74.666 67.5C74.666 65.0147 76.7554 63 79.3327 63H93.3327ZM62.9994 90C65.5767 90 67.666 92.0147 67.666 94.5C67.666 96.9853 65.5767 99 62.9994 99H20.9994C18.422 99 16.3327 96.9853 16.3327 94.5C16.3327 92.0147 18.422 90 20.9994 90H62.9994ZM100.333 90C102.91 90 104.999 92.0147 104.999 94.5C104.999 96.9853 102.91 99 100.333 99H76.9994C74.422 99 72.3327 96.9853 72.3327 94.5C72.3327 92.0147 74.422 90 76.9994 90H100.333ZM65.3327 63C67.91 63 69.9994 65.0147 69.9994 67.5C69.9994 69.9853 67.91 72 65.3327 72H20.9994C18.422 72 16.3327 69.9853 16.3327 67.5C16.3327 65.0147 18.422 63 20.9994 63H65.3327Z" fill="white"/>
</svg>
