<svg width="48" height="48" viewBox="0 0 48 48" fill="none" xmlns="http://www.w3.org/2000/svg">
<path fill-rule="evenodd" clip-rule="evenodd" d="M17.7428 35.143C18.7195 35.5337 19.2185 36.6081 18.9094 37.5954L18.857 37.7428L16.857 42.7428C16.4467 43.7683 15.2828 44.2672 14.2572 43.857C13.2805 43.4663 12.7815 42.3919 13.0906 41.4046L13.143 41.2572L15.143 36.2572C15.5533 35.2317 16.7172 34.7328 17.7428 35.143ZM26.7428 35.143C27.7195 35.5337 28.2185 36.6081 27.9094 37.5954L27.857 37.7428L25.857 42.7428C25.4467 43.7683 24.2828 44.2672 23.2572 43.857C22.2805 43.4663 21.7815 42.3919 22.0906 41.4046L22.143 41.2572L24.143 36.2572C24.5533 35.2317 25.7172 34.7328 26.7428 35.143ZM35.7428 35.143C36.7195 35.5337 37.2185 36.6081 36.9094 37.5954L36.857 37.7428L34.857 42.7428C34.4467 43.7683 33.2828 44.2672 32.2572 43.857C31.2805 43.4663 30.7815 42.3919 31.0906 41.4046L31.143 41.2572L33.143 36.2572C33.5533 35.2317 34.7172 34.7328 35.7428 35.143ZM18 4C24.6037 4 30.3965 8.033 32.8113 13.9358L32.915 14.198L33.2899 14.1325C33.7111 14.0666 34.1378 14.025 34.5683 14.0083L35 14C41.0751 14 46 18.9249 46 25C46 29.7831 42.9428 33.8657 38.6467 35.3764L38.6109 35.2947C38.196 34.4045 37.4573 33.6748 36.4856 33.2861C34.4344 32.4656 32.1065 33.4633 31.2861 35.5144L31.092 36L29.8627 36.0004C29.5722 34.8608 28.7929 33.8827 27.6768 33.3683L27.4856 33.2861C25.4344 32.4656 23.1065 33.4633 22.2861 35.5144L22.092 36L20.8627 36.0004C20.5722 34.8608 19.7929 33.8827 18.6768 33.3683L18.4856 33.2861C16.5006 32.4921 14.2565 33.4008 13.3702 35.3192C6.86784 33.36 2.14705 27.3837 2.00337 20.3313L2 20C2 11.1634 9.16344 4 18 4Z" fill="white"/>
</svg>
