<svg width="48" height="48" viewBox="0 0 48 48" fill="none" xmlns="http://www.w3.org/2000/svg">
<path fill-rule="evenodd" clip-rule="evenodd" d="M15.5 18.0002C20.5687 18.0002 25.0258 21.0413 26.9696 25.5215L26.998 25.5912L27.1136 25.5736C27.3632 25.5411 27.6151 25.5193 27.8686 25.5084L28.25 25.5002C33.0825 25.5002 37 29.4177 37 34.2502C37 39.0827 33.0825 43.0002 28.25 43.0002H14.75C14.5978 43.0002 14.4496 42.9832 14.3072 42.951L14.264 42.9392L14.0026 42.9113C7.87527 42.18 3.1544 37.0363 3.00371 30.8074L3 30.5002C3 23.5967 8.59644 18.0002 15.5 18.0002ZM28.8092 5.48196C27.539 7.16631 26.8421 9.21193 26.8421 11.3686C26.8421 16.7752 31.225 21.1581 36.6316 21.1581C38.7884 21.1581 40.8342 20.4611 42.5187 19.191C43.9881 18.083 46.0477 19.3801 45.6832 21.1839C44.805 25.5307 42.1918 29.1887 38.6369 31.4698C37.4115 26.8804 33.2255 23.5002 28.25 23.5002L28.197 23.5012L28.079 23.2886C25.5108 18.825 20.7469 16.0002 15.5 16.0002C15.0336 16.0002 14.5723 16.0222 14.1171 16.0653C14.9386 9.27061 20.0404 3.68644 26.8163 2.31738C28.6201 1.95291 29.9173 4.01258 28.8092 5.48196Z" fill="white"/>
</svg>
