<svg width="48" height="48" viewBox="0 0 48 48" fill="none" xmlns="http://www.w3.org/2000/svg">
<path fill-rule="evenodd" clip-rule="evenodd" d="M17.7428 37.1428C18.7195 37.5335 19.2185 38.6078 18.9094 39.5952L18.857 39.7425L16.857 44.7425C16.4467 45.7681 15.2828 46.2669 14.2572 45.8567C13.2805 45.466 12.7815 44.3917 13.0906 43.4043L13.143 43.257L15.143 38.257C15.5533 37.2314 16.7172 36.7326 17.7428 37.1428ZM26.7428 37.1428C27.7195 37.5335 28.2185 38.6078 27.9094 39.5952L27.857 39.7425L25.857 44.7425C25.4467 45.7681 24.2828 46.2669 23.2572 45.8567C22.2805 45.466 21.7815 44.3917 22.0906 43.4043L22.143 43.257L24.143 38.257C24.5533 37.2314 25.7172 36.7326 26.7428 37.1428ZM35.7428 37.1428C36.7195 37.5335 37.2185 38.6078 36.9094 39.5952L36.857 39.7425L34.857 44.7425C34.4467 45.7681 33.2828 46.2669 32.2572 45.8567C31.2805 45.466 30.7815 44.3917 31.0906 43.4043L31.143 43.257L33.143 38.257C33.5533 37.2314 34.7172 36.7326 35.7428 37.1428ZM18 8.99977C24.6037 8.99977 30.3965 13.0328 32.8113 18.9356L32.915 19.1978L33.2899 19.1323C33.7111 19.0664 34.1378 19.0248 34.5683 19.0081L35 18.9998C41.0751 18.9998 46 23.9246 46 29.9998C46 34.737 43.0011 38.7872 38.7699 40.332L38.7936 40.266C39.4404 38.2047 38.429 36.0632 36.4856 35.2859C34.4344 34.4654 32.1065 35.4631 31.2861 37.5142L29.892 40.9998H29.507L29.7139 40.4853L29.7936 40.266C30.4404 38.2047 29.429 36.0632 27.4856 35.2859C25.4344 34.4654 23.1065 35.4631 22.2861 37.5142L20.892 40.9998H20.507L20.7139 40.4853L20.7936 40.266C21.4404 38.2047 20.429 36.0632 18.4856 35.2859C16.4344 34.4654 14.1065 35.4631 13.2861 37.5142L12.3082 39.9586C6.35972 37.6955 2.1391 31.9935 2.00337 25.331L2 24.9998C2 16.1632 9.16344 8.99977 18 8.99977ZM33.6053 4.40176C32.7724 5.5072 32.3158 6.84788 32.3158 8.26292C32.3158 11.8092 35.1906 14.684 38.7368 14.684C40.1518 14.684 41.4921 14.2275 42.5969 13.3948C44.0663 12.2873 46.1254 13.5842 45.7611 15.3878C45.3973 17.1895 44.6361 18.8333 43.578 20.2322C41.289 18.2197 38.287 16.9998 35 16.9998L34.5296 17.0085L34.142 17.0288L34.0512 16.8454C31.8037 12.4297 27.8573 9.17263 23.2006 7.76652C24.7973 4.47344 27.8627 1.99564 31.6118 1.23782C33.4153 0.873262 34.7127 2.9322 33.6053 4.40176Z" fill="white"/>
</svg>
