<svg width="48" height="48" viewBox="0 0 48 48" fill="none" xmlns="http://www.w3.org/2000/svg">
<path fill-rule="evenodd" clip-rule="evenodd" d="M17.7428 37.1429C18.7195 37.5336 19.2185 38.6079 18.9094 39.5952L18.857 39.7426L16.857 44.7426C16.4467 45.7682 15.2828 46.267 14.2572 45.8568C13.2805 45.4661 12.7815 44.3917 13.0906 43.4044L13.143 43.257L15.143 38.257C15.5533 37.2315 16.7172 36.7326 17.7428 37.1429ZM26.7428 37.1429C27.7195 37.5336 28.2185 38.6079 27.9094 39.5952L27.857 39.7426L25.857 44.7426C25.4467 45.7682 24.2828 46.267 23.2572 45.8568C22.2805 45.4661 21.7815 44.3917 22.0906 43.4044L22.143 43.257L24.143 38.257C24.5533 37.2315 25.7172 36.7326 26.7428 37.1429ZM35.7428 37.1429C36.7195 37.5336 37.2185 38.6079 36.9094 39.5952L36.857 39.7426L34.857 44.7426C34.4467 45.7682 33.2828 46.267 32.2572 45.8568C31.2805 45.4661 30.7815 44.3917 31.0906 43.4044L31.143 43.257L33.143 38.257C33.5533 37.2315 34.7172 36.7326 35.7428 37.1429ZM18 8.99982C24.6037 8.99982 30.3965 13.0328 32.8113 18.9356L32.915 19.1978L33.2899 19.1323C33.7111 19.0664 34.1378 19.0248 34.5683 19.0082L35 18.9998C41.0751 18.9998 46 23.9247 46 29.9998C46 34.7371 43.0011 38.7873 38.7699 40.3321L38.7936 40.266C39.4404 38.2048 38.429 36.0633 36.4856 35.2859C34.4344 34.4655 32.1065 35.4631 31.2861 37.5143L29.892 40.9998H29.507L29.7139 40.4854L29.7936 40.266C30.4404 38.2048 29.429 36.0633 27.4856 35.2859C25.4344 34.4655 23.1065 35.4631 22.2861 37.5143L20.892 40.9998H20.507L20.7139 40.4854L20.7936 40.266C21.4404 38.2048 20.429 36.0633 18.4856 35.2859C16.4344 34.4655 14.1065 35.4631 13.2861 37.5143L12.3082 39.9586C6.35972 37.6955 2.1391 31.9935 2.00337 25.3311L2 24.9998C2 16.1633 9.16344 8.99982 18 8.99982ZM44.8177 16.0836C45.9223 16.0836 46.8177 16.979 46.8177 18.0836C46.8177 19.1882 45.9223 20.0836 44.8177 20.0836C43.7131 20.0836 42.8177 19.1882 42.8177 18.0836C42.8177 16.979 43.7131 16.0836 44.8177 16.0836ZM33 6.99982C37.9706 6.99982 42 11.0293 42 15.9998C42 16.9688 41.8469 17.902 41.5635 18.7766C39.6367 17.6469 37.3939 16.9998 35 16.9998L34.5296 17.0085L34.141 17.0278L34.0583 16.8604C32.4411 13.6751 29.938 11.089 26.9194 9.36569C28.5203 7.89632 30.6555 6.99982 33 6.99982ZM42.8298 7.1169C43.9344 7.1169 44.8298 8.01233 44.8298 9.1169C44.8298 10.2215 43.9344 11.1169 42.8298 11.1169C41.7253 11.1169 40.8298 10.2215 40.8298 9.1169C40.8298 8.01233 41.7253 7.1169 42.8298 7.1169ZM26.1171 4.17C27.2217 4.17 28.1171 5.06543 28.1171 6.17C28.1171 7.27457 27.2217 8.17 26.1171 8.17C25.0125 8.17 24.1171 7.27457 24.1171 6.17C24.1171 5.06543 25.0125 4.17 26.1171 4.17ZM35.0838 2.18213C36.1883 2.18213 37.0838 3.07756 37.0838 4.18213C37.0838 5.2867 36.1883 6.18213 35.0838 6.18213C33.9792 6.18213 33.0838 5.2867 33.0838 4.18213C33.0838 3.07756 33.9792 2.18213 35.0838 2.18213Z" fill="white"/>
</svg>
