<?xml version="1.0" encoding="UTF-8" standalone="no"?>
<!-- Created with Inkscape (http://www.inkscape.org/) -->

<svg
   width="8.3400002mm"
   height="8.3400002mm"
   viewBox="0 0 8.3400002 8.3400002"
   version="1.1"
   id="svg5"
   xml:space="preserve"
   inkscape:version="1.2.2 (b0a8486541, 2022-12-01)"
   sodipodi:docname="vite.svg"
   xmlns:inkscape="http://www.inkscape.org/namespaces/inkscape"
   xmlns:sodipodi="http://sodipodi.sourceforge.net/DTD/sodipodi-0.dtd"
   xmlns="http://www.w3.org/2000/svg"
   xmlns:svg="http://www.w3.org/2000/svg"><sodipodi:namedview
     id="namedview7"
     pagecolor="#ffffff"
     bordercolor="#000000"
     borderopacity="0.25"
     inkscape:showpageshadow="2"
     inkscape:pageopacity="0.0"
     inkscape:pagecheckerboard="0"
     inkscape:deskcolor="#d1d1d1"
     inkscape:document-units="mm"
     showgrid="false"
     inkscape:zoom="1.2926924"
     inkscape:cx="-81.999396"
     inkscape:cy="35.971433"
     inkscape:window-width="1854"
     inkscape:window-height="1009"
     inkscape:window-x="66"
     inkscape:window-y="32"
     inkscape:window-maximized="1"
     inkscape:current-layer="layer1" /><defs
     id="defs2"><linearGradient
       id="IconifyId1813088fe1fbc01fb466"
       x1="-0.0082799997"
       x2="0.57635999"
       y1="0.076519996"
       y2="0.78411001"><stop
         offset="0%"
         stop-color="#41D1FF"
         id="stop63" /><stop
         offset="100%"
         stop-color="#BD34FE"
         id="stop65" /></linearGradient><linearGradient
       id="IconifyId1813088fe1fbc01fb467"
       x1="0.43375999"
       x2="0.50316"
       y1="0.02242"
       y2="0.89029998"><stop
         offset="0%"
         stop-color="#FFEA83"
         id="stop68" /><stop
         offset="8.333%"
         stop-color="#FFDD35"
         id="stop70" /><stop
         offset="100%"
         stop-color="#FFA800"
         id="stop72" /></linearGradient></defs><g
     inkscape:label="Layer 1"
     inkscape:groupmode="layer"
     id="layer1"
     transform="translate(-175.26009,-82.164284)"><rect
       style="fill:#2185f7;stroke-width:0.264583;fill-opacity:1"
       id="rect306"
       width="8.3400002"
       height="8.3400002"
       x="175.26009"
       y="82.164284" /><g
       id="g772"
       transform="matrix(0.62890348,0,0,0.63923269,77.993126,21.96363)"><g
         id="g810"><path
           sodipodi:type="star"
           style="fill:#ffdd55;stroke:#000000;stroke-width:0.264583"
           id="path763"
           inkscape:flatsided="false"
           sodipodi:sides="10"
           sodipodi:cx="138.14378"
           sodipodi:cy="95.485481"
           sodipodi:r1="5.1900983"
           sodipodi:r2="2.5950494"
           sodipodi:arg1="0.96649082"
           sodipodi:arg2="1.2806501"
           inkscape:rounded="0"
           inkscape:randomized="0"
           d="m 141.09275,99.756397 -2.20654,-1.784334 -0.86704,2.702017 -0.73633,-2.740526 -2.28966,1.676346 1.01515,-2.649936 -2.83771,0.01037 2.37886,-1.547157 -2.30184,-1.659576 2.83393,0.146584 -0.88675,-2.695615 2.20654,1.784335 0.86704,-2.702021 0.73633,2.74053 2.28966,-1.676346 -1.01515,2.649935 2.83771,-0.01036 -2.37887,1.547156 2.30185,1.659576 -2.83394,-0.146584 z"
           inkscape:transform-center-x="-0.030201135"
           inkscape:transform-center-y="-0.35987666"
           transform="matrix(0.78430931,0,0,0.78430931,54.964225,24.255929)" /><circle
           style="fill:#ffcc00;stroke:#000000;stroke-width:0.264583"
           id="path628"
           cx="163.31168"
           cy="99.14608"
           r="1.8049705" /></g><path
         id="path464-5"
         style="fill:#f2f2f2;stroke:#000000;stroke-width:0.295744"
         d="m 158.8241,97.101909 a 1.6341059,1.6640722 0 0 0 -1.63407,1.66382 1.6341059,1.6640722 0 0 0 0.14093,0.67263 2.2368199,2.1126487 0 0 0 -0.002,0.008 1.4324306,1.3529129 0 0 0 -0.10886,-0.004 1.4324306,1.3529129 0 0 0 -1.43258,1.352711 1.4324306,1.3529129 0 0 0 1.43258,1.35329 1.4324306,1.3529129 0 0 0 1.00571,-0.39132 2.2368199,2.1126487 0 0 0 1.25788,0.36496 2.2368199,2.1126487 0 0 0 1.24332,-0.35694 1.4324306,1.3529129 0 0 0 1.07676,0.46236 1.4324306,1.3529129 0 0 0 1.43259,-1.35271 1.4324306,1.3529129 0 0 0 -1.13443,-1.323491 1.4324306,1.3529129 0 0 0 0.10312,-0.50361 1.4324306,1.3529129 0 0 0 -1.43258,-1.35272 1.4324306,1.3529129 0 0 0 -0.60274,0.12662 1.6341059,1.6640722 0 0 0 -1.34523,-0.71961 z"
         inkscape:label="nuvem cinza" /><path
         id="path464-5-6"
         style="fill:#f2f2f2;stroke:#000000;stroke-width:0.295744"
         d="m 158.17734,101.07889 a 1.6341059,1.6640722 0 0 0 -1.63407,1.66382 1.6341059,1.6640722 0 0 0 0.14093,0.67263 2.2368199,2.1126487 0 0 0 -0.002,0.008 1.4324306,1.3529129 0 0 0 -0.10886,-0.004 1.4324306,1.3529129 0 0 0 -1.43258,1.35271 1.4324306,1.3529129 0 0 0 1.43258,1.35329 1.4324306,1.3529129 0 0 0 1.00571,-0.39132 2.2368199,2.1126487 0 0 0 1.25788,0.36496 2.2368199,2.1126487 0 0 0 1.24332,-0.35694 1.4324306,1.3529129 0 0 0 1.07676,0.46236 1.4324306,1.3529129 0 0 0 1.43259,-1.35271 1.4324306,1.3529129 0 0 0 -1.13443,-1.32349 1.4324306,1.3529129 0 0 0 0.10312,-0.50361 1.4324306,1.3529129 0 0 0 -1.43258,-1.35272 1.4324306,1.3529129 0 0 0 -0.60274,0.12662 1.6341059,1.6640722 0 0 0 -1.34523,-0.71961 z"
         inkscape:label="nuvem cinza" /><path
         id="path464"
         style="fill:#ffffff;stroke:#000000;stroke-width:0.295744"
         d="m 163.16503,99.960907 a 1.6341059,1.6640722 0 0 0 -1.63407,1.663823 1.6341059,1.6640722 0 0 0 0.14093,0.67263 2.2368199,2.1126487 0 0 0 -0.002,0.008 1.4324306,1.3529129 0 0 0 -0.10886,-0.004 1.4324306,1.3529129 0 0 0 -1.43258,1.35271 1.4324306,1.3529129 0 0 0 1.43258,1.35329 1.4324306,1.3529129 0 0 0 1.00571,-0.39132 2.2368199,2.1126487 0 0 0 1.25788,0.36496 2.2368199,2.1126487 0 0 0 1.24332,-0.35694 1.4324306,1.3529129 0 0 0 1.07676,0.46236 1.4324306,1.3529129 0 0 0 1.43259,-1.35271 1.4324306,1.3529129 0 0 0 -1.13443,-1.32349 1.4324306,1.3529129 0 0 0 0.10312,-0.50361 1.4324306,1.3529129 0 0 0 -1.43258,-1.35272 1.4324306,1.3529129 0 0 0 -0.60274,0.12662 1.6341059,1.6640722 0 0 0 -1.34523,-0.719613 z"
         inkscape:label="nuvem branca" /></g></g></svg>
