<svg width="105" height="105" viewBox="0 0 105 105" fill="none" xmlns="http://www.w3.org/2000/svg">
<path fill-rule="evenodd" clip-rule="evenodd" d="M39.375 17.5C20.045 17.5 4.375 33.17 4.375 52.5L4.38238 53.2246C4.74076 70.8163 18.1181 85.3468 35.4468 87.2818L36.0238 87.3403L36.2259 87.394C36.5353 87.4634 36.8571 87.5 37.1875 87.5H76.5625L77.2062 87.4911C90.2607 87.1136 100.625 76.4629 100.625 63.4375C100.625 50.1481 89.8519 39.375 76.5625 39.375L75.6181 39.3933C74.6764 39.4297 73.743 39.5207 72.8216 39.6649L72.0016 39.8081L71.7748 39.2346C66.4924 26.3222 53.8205 17.5 39.375 17.5Z" fill="white"/>
</svg>
