<svg width="125" height="132" viewBox="0 0 125 132" fill="none" xmlns="http://www.w3.org/2000/svg">
<path fill-rule="evenodd" clip-rule="evenodd" d="M59.2035 17.542C39.8269 17.542 24.1191 33.2498 24.1191 52.6263L24.1265 53.3527C24.4858 70.9868 37.8954 85.5523 55.2659 87.4919L55.8442 87.5506L56.0468 87.6044C56.357 87.674 56.6795 87.7107 57.0107 87.7107H96.4806L97.1259 87.7018C110.212 87.3233 120.601 76.647 120.601 63.5902C120.601 50.2688 109.802 39.4697 96.4806 39.4697L95.5339 39.488C94.5899 39.5246 93.6543 39.6158 92.7307 39.7603L91.9087 39.9039L91.6813 39.3289C86.3862 26.3854 73.6838 17.542 59.2035 17.542Z" fill="#BFBFBF"/>
<path fill-rule="evenodd" clip-rule="evenodd" d="M39.4691 43.8555C20.0926 43.8555 4.38477 59.5633 4.38477 78.9398L4.39216 79.6662C4.75141 97.3002 18.161 111.866 35.5315 113.805L36.1098 113.864L36.3125 113.918C36.6226 113.987 36.9452 114.024 37.2763 114.024H76.7462L77.3915 114.015C90.4774 113.637 100.867 102.96 100.867 89.9037C100.867 76.5823 90.0676 65.7832 76.7462 65.7832L75.7996 65.8015C74.8555 65.838 73.9199 65.9292 72.9963 66.0738L72.1743 66.2173L71.9469 65.6424C66.6519 52.6989 53.9494 43.8555 39.4691 43.8555Z" fill="white"/>
</svg>
