<svg width="48" height="48" viewBox="0 0 48 48" fill="none" xmlns="http://www.w3.org/2000/svg">
<path fill-rule="evenodd" clip-rule="evenodd" d="M31 22C31.8284 22 32.5 22.6716 32.5 23.5C32.5 23.8246 32.3947 24.1404 32.2 24.4L28 30L31.2439 30.2949C32.0689 30.3699 32.6769 31.0995 32.6019 31.9245C32.5837 32.1249 32.5253 32.3196 32.4303 32.497L25.7586 44.9526C24.6893 46.9267 21.7216 45.9051 22.0144 43.7529L22.0388 43.6078L23.623 35.68L17.8636 34.7885C17.045 34.6618 16.484 33.8954 16.6108 33.0767C16.6281 32.9644 16.6582 32.8545 16.7004 32.7491L20.4971 23.2572C20.8008 22.4979 21.5363 22 22.3541 22H31ZM15.9987 34.9995L16.1478 35.0049C16.3471 35.0197 16.5474 35.0649 16.7428 35.143C17.7195 35.5337 18.2185 36.6081 17.9094 37.5954L17.857 37.7428L15.857 42.7428L15.7884 42.8956C15.4668 43.5395 14.8337 43.9431 14.1494 43.9949L14.0013 44.0005C13.7534 44.0008 13.5014 43.9546 13.2572 43.857C12.2805 43.4663 11.7815 42.3919 12.0906 41.4046L12.143 41.2572L14.143 36.2572L14.2113 36.1051C14.5558 35.4145 15.2586 35.0002 15.9987 34.9995ZM8.99874 34.9995L9.14785 35.0049C9.34707 35.0197 9.54744 35.0649 9.74278 35.143C10.7195 35.5337 11.2185 36.6081 10.9094 37.5954L10.857 37.7428L8.85695 42.7428L8.7884 42.8956C8.46684 43.5395 7.83372 43.9431 7.14936 43.9949L7.00126 44.0005C6.75343 44.0008 6.5014 43.9546 6.25722 43.857C5.28049 43.4663 4.78152 42.3919 5.09059 41.4046L5.14305 41.2572L7.14305 36.2572L7.21127 36.1051C7.5558 35.4145 8.25855 35.0002 8.99874 34.9995ZM35.9987 34.9995L36.1478 35.0049C36.3471 35.0197 36.5474 35.0649 36.7428 35.143C37.7195 35.5337 38.2185 36.6081 37.9094 37.5954L37.857 37.7428L35.857 42.7428L35.7884 42.8956C35.4668 43.5395 34.8337 43.9431 34.1494 43.9949L34.0013 44.0005C33.7534 44.0008 33.5014 43.9546 33.2572 43.857C32.2805 43.4663 31.7815 42.3919 32.0906 41.4046L32.143 41.2572L34.143 36.2572L34.2113 36.1051C34.5558 35.4145 35.2586 35.0002 35.9987 34.9995ZM42.9987 34.9995L43.1478 35.0049C43.3471 35.0197 43.5474 35.0649 43.7428 35.143C44.7195 35.5337 45.2185 36.6081 44.9094 37.5954L44.857 37.7428L42.857 42.7428L42.7884 42.8956C42.4668 43.5395 41.8337 43.9431 41.1494 43.9949L41.0013 44.0005C40.7534 44.0008 40.5014 43.9546 40.2572 43.857C39.2805 43.4663 38.7815 42.3919 39.0906 41.4046L39.143 41.2572L41.143 36.2572L41.2113 36.1051C41.5558 35.4145 42.2586 35.0002 42.9987 34.9995ZM18 4C24.6037 4 30.3965 8.033 32.8113 13.9358L32.915 14.198L33.2899 14.1325C33.7111 14.0666 34.1378 14.025 34.5683 14.0083L35 14C41.0751 14 46 18.9249 46 25C46 29.467 43.3335 33.3231 39.4817 35.0437C39.0521 34.2677 38.3641 33.6375 37.4856 33.2861C36.4509 32.8722 35.3459 32.921 34.3995 33.3342L34.2 33.428L34.297 33.2312C34.4578 32.8757 34.5583 32.4953 34.5937 32.1056L34.6059 31.9139C34.6689 30.196 33.4703 28.6937 31.8029 28.3581L31.739 28.347L33.8 25.6C34.2544 24.9942 34.5 24.2573 34.5 23.5C34.5 21.567 32.933 20 31 20H22.3541C20.7184 20 19.2476 20.9958 18.6402 22.5144L14.8434 32.0063C14.745 32.2523 14.6748 32.5088 14.6343 32.7707L14.61 32.9613C14.6002 33.06 14.5945 33.1583 14.593 33.256C13.7347 33.578 12.9881 34.1943 12.5154 35.035C6.4584 32.8281 2.14068 27.0712 2.00337 20.3313L2 20C2 11.1634 9.16344 4 18 4Z" fill="white"/>
</svg>
