<svg width="48" height="48" viewBox="0 0 48 48" fill="none" xmlns="http://www.w3.org/2000/svg">
<path fill-rule="evenodd" clip-rule="evenodd" d="M18 4C24.6037 4 30.3965 8.033 32.8113 13.9358L32.915 14.198L33.2899 14.1325C33.7111 14.0666 34.1378 14.025 34.5683 14.0083L35 14C41.0751 14 46 18.9249 46 25C46 27.6916 45.0319 30.1614 43.4196 32.0759C43.7879 31.4709 44 30.7602 44 30C44 27.7909 42.2091 26 40 26H34L33.8004 26.0049C32.7422 26.0569 31.7921 26.5201 31.1065 27.2381L31 27.356L30.8935 27.2381C30.1651 26.4753 29.138 26 28 26H9C6.99765 26 5.33894 27.4713 5.04595 29.3918C3.18836 26.8326 2.07211 23.7051 2.00337 20.3313L2 20C2 11.1634 9.16344 4 18 4ZM39 34C40.1046 34 41 34.8954 41 36C41 37.1046 40.1046 38 39 38H25C23.8954 38 23 37.1046 23 36C23 34.8954 23.8954 34 25 34H39ZM19 34C20.1046 34 21 34.8954 21 36C21 37.1046 20.1046 38 19 38H5C3.89543 38 3 37.1046 3 36C3 34.8954 3.89543 34 5 34H19ZM40 28C41.1046 28 42 28.8954 42 30C42 31.1046 41.1046 32 40 32H34C32.8954 32 32 31.1046 32 30C32 28.8954 32.8954 28 34 28H40ZM27 40C28.1046 40 29 40.8954 29 42C29 43.1046 28.1046 44 27 44H9C7.89543 44 7 43.1046 7 42C7 40.8954 7.89543 40 9 40H27ZM43 40C44.1046 40 45 40.8954 45 42C45 43.1046 44.1046 44 43 44H33C31.8954 44 31 43.1046 31 42C31 40.8954 31.8954 40 33 40H43ZM28 28C29.1046 28 30 28.8954 30 30C30 31.1046 29.1046 32 28 32H9C7.89543 32 7 31.1046 7 30C7 28.8954 7.89543 28 9 28H28Z" fill="white"/>
</svg>
