<svg width="128" height="128" viewBox="0 0 128 128" fill="none" xmlns="http://www.w3.org/2000/svg">
<path d="M89.2907 58.3906H82.2725C80.9685 58.3906 79.8138 59.233 79.4157 60.4748L72.8758 80.8761C72.2552 82.8122 73.6995 84.7919 75.7326 84.7919H79.3145C80.4595 84.7919 81.3708 85.7513 81.3119 86.8947L80.203 108.432C80.1753 108.969 80.8998 109.165 81.1467 108.687L96.5335 78.8758C97.5641 76.8791 96.1147 74.4999 93.8677 74.4999H90.8726C89.5086 74.4999 88.5448 73.1646 88.9743 71.87L92.138 62.3354C92.7823 60.3936 91.3366 58.3906 89.2907 58.3906Z" fill="#FFD400"/>
<path opacity="0.54" d="M98.1803 82.9112L100.241 78.9196C102.062 75.3909 99.5004 71.1862 95.5293 71.1862H92.6932L95.7252 62.0484C96.8639 58.6167 94.309 55.0769 90.6932 55.0769H81.5351C79.2305 55.0769 77.1899 56.5657 76.4864 58.7603L69.2978 81.1852C69.1122 81.7641 69.0311 82.3452 69.0418 82.9112L33.1834 82.9112C19.275 82.9112 8 71.6362 8 57.7278C8 43.8194 19.275 32.5444 33.1834 32.5444C36.1992 32.5444 39.0912 33.0745 41.7712 34.0466C47.059 21.1128 59.7671 12 74.6036 12C94.1852 12 110.059 27.874 110.059 47.4556C110.059 48.3182 110.028 49.1737 109.968 50.0208C115.889 52.7474 120 58.7339 120 65.6805C120 75.1967 112.285 82.9112 102.769 82.9112H98.1803Z" fill="white"/>
<path d="M68.4333 109.964L64.9938 102.793L61.5545 109.964C61.213 110.561 61.0174 111.256 61.0174 111.997C61.0174 114.234 62.7977 116.047 64.9938 116.047C67.1898 116.047 68.9701 114.234 68.9701 111.997C68.9701 111.256 68.7746 110.562 68.4333 109.964Z" fill="white"/>
<path d="M56.5042 96.7093L53.0648 89.5386L49.6252 96.7096C49.2839 97.3072 49.0885 98.0018 49.0885 98.743C49.0885 100.98 50.8687 102.793 53.0648 102.793C55.2609 102.793 57.0411 100.98 57.0411 98.743C57.0411 98.0017 56.8456 97.3069 56.5042 96.7093Z" fill="white"/>
<path d="M44.5753 109.964L41.1358 102.793L37.6965 109.964C37.355 110.561 37.1595 111.256 37.1595 111.997C37.1595 114.234 38.9397 116.047 41.1358 116.047C43.3319 116.047 45.1121 114.234 45.1121 111.997C45.1121 111.256 44.9166 110.562 44.5753 109.964Z" fill="white"/>
<path d="M32.6462 96.7093L29.2068 89.5386L25.7673 96.7095C25.426 97.3071 25.2305 98.0018 25.2305 98.743C25.2305 100.98 27.0107 102.793 29.2068 102.793C31.4029 102.793 33.1831 100.98 33.1831 98.743C33.1831 98.0017 32.9876 97.307 32.6462 96.7093Z" fill="white"/>
</svg>
